<svg width="119" height="34" viewBox="0 0 119 34" fill="none" xmlns="http://www.w3.org/2000/svg">
<path d="M116.47 3.58482L116.763 3.96806H117.214L116.853 3.53973C116.943 3.49465 117.011 3.44956 117.056 3.38193C117.101 3.3143 117.124 3.22412 117.124 3.15649C117.124 3.08886 117.124 3.02123 117.078 2.97614C117.056 2.93105 117.033 2.86342 116.988 2.84088C116.943 2.79579 116.898 2.77325 116.853 2.7507C116.808 2.72816 116.74 2.72816 116.673 2.72816H116.109V3.99061H116.47V3.58482ZM116.583 3.04377C116.65 3.04377 116.695 3.04377 116.718 3.08886C116.74 3.1114 116.763 3.13395 116.763 3.17903C116.763 3.22412 116.74 3.24666 116.718 3.26921C116.695 3.29175 116.65 3.3143 116.583 3.3143H116.47V3.04377H116.583ZM118.003 3.33684C118.003 2.54781 117.349 1.89404 116.56 1.89404C115.771 1.89404 115.117 2.54781 115.117 3.33684C115.117 4.12587 115.771 4.77964 116.56 4.77964C117.349 4.77964 118.003 4.12587 118.003 3.33684ZM117.665 3.33684C117.665 3.94552 117.169 4.41894 116.583 4.41894C115.996 4.41894 115.5 3.92298 115.5 3.33684C115.5 2.72816 115.996 2.25474 116.583 2.25474C117.169 2.25474 117.665 2.7507 117.665 3.33684Z" fill="white"/>
<path d="M38.1309 8.4542V19.9064C38.1309 20.3347 38.469 20.6729 38.8973 20.6729H41.5575C41.9858 20.6729 42.324 20.3347 42.324 19.9064V10.9565C42.324 10.5958 42.6171 10.3028 42.9778 10.3028C43.3385 10.3028 43.6315 10.5958 43.6315 10.9565V14.3832C43.6315 14.8115 43.9697 15.1497 44.398 15.1497H47.0582C47.4865 15.1497 47.8246 14.8115 47.8246 14.3832V8.4542C47.8246 7.16921 46.7876 6.1322 45.5026 6.1322H40.4529C39.1679 6.10965 38.1309 7.14666 38.1309 8.4542Z" fill="white"/>
<path d="M71.1348 8.4542V19.9064C71.1348 20.3347 71.4729 20.6729 71.9238 20.6729H74.5839C75.0123 20.6729 75.373 20.3347 75.373 19.9064V10.9565C75.373 10.5958 75.666 10.3028 76.0267 10.3028C76.3874 10.3028 76.6805 10.5958 76.6805 10.9565V19.8838C76.6805 20.3122 77.0187 20.6503 77.4695 20.6503H80.1297C80.558 20.6503 80.9187 20.3122 80.9187 19.8838V8.4542C80.9187 7.16921 79.8817 6.1322 78.5967 6.1322H73.5469C72.1718 6.10965 71.1348 7.14666 71.1348 8.4542Z" fill="white"/>
<path d="M93.1367 8.4542V19.9064C93.1367 20.3347 93.4749 20.6729 93.9257 20.6729H96.5859C97.0142 20.6729 97.3749 20.3347 97.3749 19.9064V10.9565C97.3749 10.5958 97.668 10.3028 98.0287 10.3028C98.3894 10.3028 98.6825 10.5958 98.6825 10.9565V14.3832C98.6825 14.8115 99.0206 15.1497 99.4715 15.1497H102.132C102.56 15.1497 102.921 14.8115 102.921 14.3832V8.4542C102.921 7.16921 101.884 6.1322 100.599 6.1322H95.5489C94.1737 6.10965 93.1367 7.14666 93.1367 8.4542Z" fill="white"/>
<path d="M113.856 14.4058V2.68307C113.856 2.25474 113.495 1.89404 113.067 1.89404H110.429C110.001 1.89404 109.663 2.2322 109.663 2.66053V4.53166C109.663 5.38832 108.964 6.08717 108.107 6.08717H106.484C105.199 6.08717 104.162 7.12418 104.162 8.40917V18.3509C104.162 19.6359 105.199 20.6729 106.484 20.6729H113.089C113.518 20.6729 113.878 20.3348 113.878 19.9065V17.2463C113.878 16.818 113.54 16.4798 113.089 16.4798H109.911C109.054 16.4798 108.355 15.781 108.355 14.9243V10.9566C108.355 10.5959 108.648 10.3028 109.009 10.3028C109.37 10.3028 109.663 10.5959 109.663 10.9566V14.3833C109.663 14.8116 110.001 15.1497 110.452 15.1497H113.112C113.495 15.1723 113.856 14.8341 113.856 14.4058Z" fill="white"/>
<path d="M82.1369 6.89883V9.55899C82.1369 9.98732 82.475 10.3255 82.9034 10.3255H86.082C86.9387 10.3255 87.6375 11.0243 87.6375 11.881V15.8261C87.6375 16.1868 87.3445 16.4799 86.9838 16.4799C86.6231 16.4799 86.33 16.1868 86.33 15.8261V12.3995C86.33 11.9712 85.9919 11.633 85.541 11.633H82.8808C82.4525 11.633 82.0918 11.9712 82.0918 12.3995V18.351C82.0918 19.636 83.1288 20.673 84.4138 20.673H89.4636C90.7486 20.673 91.7856 19.636 91.7856 18.351V8.45435C91.7856 7.16936 90.7486 6.13235 89.4636 6.13235H82.8583C82.475 6.10981 82.1369 6.4705 82.1369 6.89883Z" fill="white"/>
<path d="M58.8266 14.4059V8.45432C58.8266 7.16933 57.7896 6.13232 56.5046 6.13232H51.4548C50.1698 6.13232 49.1328 7.16933 49.1328 8.45432V18.351C49.1328 19.636 50.1698 20.673 51.4548 20.673H58.0601C58.4884 20.673 58.8491 20.3348 58.8491 19.9065V17.2464C58.8491 16.818 58.511 16.4799 58.0827 16.4799H54.8815C54.0248 16.4799 53.3259 15.781 53.3259 14.9244V10.9567C53.3259 10.596 53.619 10.3029 53.9797 10.3029C54.3404 10.3029 54.6335 10.596 54.6335 10.9567V14.3833C54.6335 14.8116 54.9716 15.1498 55.4225 15.1498H58.0827C58.4884 15.1723 58.8266 14.8342 58.8266 14.4059Z" fill="white"/>
<path d="M65.6336 6.89883V10.3255C65.6336 10.6862 65.3406 10.9792 64.9799 10.9792C64.6192 10.9792 64.3261 10.6862 64.3261 10.3255V6.89883C64.3261 6.4705 63.9879 6.13235 63.5371 6.13235H60.8769C60.4486 6.13235 60.0879 6.4705 60.0879 6.89883V12.3544C60.0879 14.1579 61.1249 15.1949 62.4099 15.1949H64.9348C65.2955 15.1949 65.5886 15.488 65.5886 15.8487C65.5886 16.2094 65.2955 16.5024 64.9348 16.5024H60.8544C60.426 16.5024 60.0879 16.8406 60.0879 17.2689V19.9291C60.0879 20.3574 60.426 20.6956 60.8769 20.6956H67.5048C68.7898 20.6956 69.8268 19.6586 69.8268 18.3736V6.89883C69.8268 6.4705 69.4886 6.13235 69.0603 6.13235H66.4001C65.9718 6.10981 65.6336 6.4705 65.6336 6.89883Z" fill="white"/>
<path d="M57.1557 22.2061V22.7246C57.1557 22.9049 57.0655 22.9951 56.8852 22.9951H56.0962V25.9483C56.0962 26.1287 56.006 26.2188 55.8256 26.2188H55.217C55.0366 26.2188 54.9464 26.1287 54.9464 25.9483V22.9951H54.1123C53.932 22.9951 53.8418 22.9049 53.8418 22.7246V22.2061C53.8418 22.0257 53.932 21.9355 54.1123 21.9355H56.8401C57.043 21.9355 57.1557 22.0483 57.1557 22.2061Z" fill="white"/>
<path d="M57.3359 24.6631V23.5134C57.3359 22.5214 58.0348 21.8677 59.1169 21.8677C60.199 21.8677 60.8978 22.5214 60.8978 23.5134V24.6631C60.8978 25.655 60.199 26.3088 59.1169 26.3088C58.0348 26.2862 57.3359 25.6325 57.3359 24.6631ZM59.7481 24.6405V23.5134C59.7481 23.1527 59.4776 22.9272 59.1169 22.9272C58.7562 22.9272 58.4857 23.1752 58.4857 23.5134V24.6405C58.4857 25.0012 58.7336 25.2267 59.1169 25.2267C59.4776 25.2492 59.7481 25.0012 59.7481 24.6405Z" fill="white"/>
<path d="M61.3496 24.6631V23.5134C61.3496 22.5214 62.0485 21.8677 63.1306 21.8677C64.2127 21.8677 64.9115 22.5214 64.9115 23.5134V24.6631C64.9115 25.655 64.2127 26.3088 63.1306 26.3088C62.0485 26.2862 61.3496 25.6325 61.3496 24.6631ZM63.7618 24.6405V23.5134C63.7618 23.1527 63.4913 22.9272 63.1306 22.9272C62.7699 22.9272 62.4993 23.1752 62.4993 23.5134V24.6405C62.4993 25.0012 62.7473 25.2267 63.1306 25.2267C63.4913 25.2492 63.7618 25.0012 63.7618 24.6405Z" fill="white"/>
<path d="M68.179 25.4298V25.9483C68.179 26.1287 68.0888 26.2188 67.9084 26.2188H65.7217C65.5413 26.2188 65.4512 26.1287 65.4512 25.9483V22.2061C65.4512 22.0257 65.5413 21.9355 65.7217 21.9355H66.3304C66.5107 21.9355 66.6009 22.0257 66.6009 22.2061V25.1593H67.8859C68.0662 25.1593 68.179 25.2495 68.179 25.4298Z" fill="white"/>
<path d="M72.0564 25.0917C72.0564 25.7454 71.6056 26.2188 70.9067 26.2188H68.9229C68.7425 26.2188 68.6523 26.1287 68.6523 25.9483V22.2061C68.6523 22.0257 68.7425 21.9355 68.9229 21.9355H70.794C71.4928 21.9355 71.9437 22.3639 71.9437 23.0627C71.9437 23.5812 71.6507 23.9645 71.2449 24.0321V24.0997C71.7408 24.1674 72.0564 24.5506 72.0564 25.0917ZM69.8021 22.95V23.6263H70.4558C70.6587 23.6263 70.794 23.4911 70.794 23.2882C70.794 23.0853 70.6587 22.95 70.4558 22.95H69.8021ZM70.9293 24.8662C70.9293 24.6408 70.794 24.5055 70.5911 24.5055H69.8021V25.2044H70.5911C70.794 25.2269 70.9293 25.0691 70.9293 24.8662Z" fill="white"/>
<path d="M72.373 24.6631V23.5134C72.373 22.5214 73.0719 21.8677 74.154 21.8677C75.2361 21.8677 75.9349 22.5214 75.9349 23.5134V24.6631C75.9349 25.655 75.2361 26.3088 74.154 26.3088C73.0719 26.3088 72.373 25.6325 72.373 24.6631ZM74.7852 24.6405V23.5134C74.7852 23.1527 74.5147 22.9272 74.154 22.9272C73.7708 22.9272 73.5228 23.1752 73.5228 23.5134V24.6405C73.5228 25.0012 73.7708 25.2267 74.154 25.2267C74.5147 25.2492 74.7852 25.0012 74.7852 24.6405Z" fill="white"/>
<path d="M76.1597 25.8807L77.1516 24.1223L76.0921 22.2737C75.9794 22.0708 76.0695 21.9355 76.2724 21.9355H77.084C77.2418 21.9355 77.332 22.0032 77.3996 22.1384L77.873 23.0627H77.9407L78.4141 22.1384C78.4817 22.0032 78.5944 21.9355 78.7297 21.9355H79.4285C79.6314 21.9355 79.7216 22.0708 79.6089 22.2737L78.617 24.0321L79.6765 25.8807C79.7892 26.0836 79.6991 26.2188 79.4962 26.2188H78.6846C78.5268 26.2188 78.4366 26.1512 78.369 26.016L77.8956 25.0917H77.8279L77.3771 26.016C77.3094 26.1512 77.1967 26.2188 77.0614 26.2188H76.3626C76.1146 26.2188 76.047 26.0836 76.1597 25.8807Z" fill="white"/>
<path d="M81.2548 25.1591C81.2323 24.9788 81.345 24.8661 81.5253 24.8661H82.2242C82.382 24.8661 82.4271 24.9337 82.4947 25.069C82.5623 25.2944 82.7427 25.3846 82.9681 25.3846C83.2387 25.3846 83.4416 25.2493 83.4416 25.0464C83.4416 24.4152 81.2999 24.7083 81.2999 23.1753C81.2999 22.3186 81.9762 21.8452 82.9456 21.8452C83.8473 21.8452 84.4335 22.2285 84.5687 22.9048C84.5913 23.0851 84.4786 23.1978 84.2982 23.1978H83.6219C83.4641 23.1978 83.419 23.1302 83.3739 23.04C83.3063 22.8597 83.1485 22.7695 82.9456 22.7695C82.6751 22.7695 82.5173 22.9048 82.5173 23.0851C82.5173 23.7163 84.6589 23.3782 84.6589 24.9337C84.6589 25.7904 84.0051 26.3089 82.9907 26.3089C82.0213 26.2863 81.3901 25.8805 81.2548 25.1591Z" fill="white"/>
<path d="M85.043 24.731V22.2061C85.043 22.0257 85.1331 21.9355 85.3135 21.9355H85.9222C86.1025 21.9355 86.1927 22.0257 86.1927 22.2061V24.7084C86.1927 25.0466 86.4181 25.2269 86.7563 25.2269C87.0944 25.2269 87.3199 25.0015 87.3199 24.7084V22.2061C87.3199 22.0257 87.4101 21.9355 87.5904 21.9355H88.1991C88.3794 21.9355 88.4696 22.0257 88.4696 22.2061V24.731C88.4696 25.6778 87.7933 26.309 86.7563 26.309C85.7193 26.2865 85.043 25.6553 85.043 24.731Z" fill="white"/>
<path d="M89.123 25.9483V22.2061C89.123 22.0257 89.2132 21.9355 89.3936 21.9355H90.0022C90.1826 21.9355 90.2728 22.0257 90.2728 22.2061V25.9483C90.2728 26.1287 90.1826 26.2188 90.0022 26.2188H89.3936C89.2358 26.2188 89.123 26.1287 89.123 25.9483Z" fill="white"/>
<path d="M94.0375 22.2061V22.7246C94.0375 22.9049 93.9473 22.9951 93.7669 22.9951H92.9779V25.9483C92.9779 26.1287 92.8877 26.2188 92.7074 26.2188H92.0987C91.9184 26.2188 91.8282 26.1287 91.8282 25.9483V22.9951H91.0166C90.8363 22.9951 90.7461 22.9049 90.7461 22.7246V22.2061C90.7461 22.0257 90.8363 21.9355 91.0166 21.9355H93.7444C93.9248 21.9355 94.0375 22.0483 94.0375 22.2061Z" fill="white"/>
<path d="M95.638 22.995V23.5586H96.8103C96.9906 23.5586 97.0808 23.6488 97.0808 23.8291V24.3251C97.0808 24.5054 96.9906 24.5956 96.8103 24.5956H95.638V25.1818H97.0583C97.2386 25.1818 97.3288 25.2719 97.3288 25.4523V25.9708C97.3288 26.1511 97.2386 26.2413 97.0583 26.2413H94.7588C94.5785 26.2413 94.4883 26.1511 94.4883 25.9708V22.2285C94.4883 22.0482 94.5785 21.958 94.7588 21.958H97.0583C97.2386 21.958 97.3288 22.0482 97.3288 22.2285V22.747C97.3288 22.9274 97.2386 23.0176 97.0583 23.0176L95.638 22.995Z" fill="white"/>
<path d="M17.5235 32.711C17.8166 32.711 18.0646 32.5532 18.1999 32.2827C19.823 28.9462 21.2658 25.5421 22.5733 22.0704C26.2705 21.9126 29.9902 21.5744 33.6648 21.0785C33.9579 21.0334 34.1833 20.8305 34.2735 20.56C34.3637 20.2894 34.296 19.9964 34.0706 19.7935C31.3879 17.2235 28.5925 14.7888 25.6844 12.4893C26.6763 8.92742 27.5104 5.29788 28.1642 1.64581C28.2092 1.37528 28.0965 1.08221 27.8711 0.901863C27.7358 0.811689 27.578 0.766602 27.4202 0.766602C27.3075 0.766602 27.1722 0.789146 27.0595 0.856777C27.0595 0.856777 21.897 3.69728 17.501 6.56033C13.1275 3.67474 7.94247 0.856777 7.94247 0.856777C7.82975 0.789146 7.71703 0.766602 7.58177 0.766602C7.42396 0.766602 7.26616 0.811689 7.1309 0.901863C6.90546 1.08221 6.79274 1.35274 6.83783 1.64581C7.4916 5.29788 8.32571 8.90487 9.31763 12.4893C6.4095 14.7888 3.61408 17.2235 0.93138 19.7935C0.728487 19.9964 0.660856 20.2894 0.728487 20.56C0.818661 20.8305 1.06664 21.0334 1.33717 21.0785C5.01179 21.5744 8.70895 21.9126 12.4287 22.0704C13.7137 25.5421 15.179 28.9688 16.8021 32.2827C16.9599 32.5307 17.2305 32.711 17.5235 32.711Z" fill="white"/>
<path d="M23.1812 19.8834C23.3164 19.5227 23.4292 19.162 23.5644 18.8013C26.6078 19.3199 29.7188 19.7933 32.7622 20.154L23.9251 17.7418C24.0378 17.4262 24.128 17.088 24.2407 16.7724L32.7848 19.9962C31.3871 19.2297 29.9894 18.4857 28.5691 17.7418C27.4194 17.1557 25.8864 16.3892 24.5563 15.7354C24.6691 15.3973 24.7592 15.0816 24.872 14.7435C28.0732 16.7273 33.4836 20.2667 33.5513 20.3118C31.0489 17.8996 28.4339 15.6227 25.7286 13.4585C23.1361 11.3845 20.4759 9.42317 17.7256 7.57459C14.5019 5.41039 11.1654 3.40401 7.73874 1.55542C7.69366 1.53288 7.67111 1.51034 7.62603 1.48779C8.30234 5.27513 9.18154 9.03993 10.2186 12.7371C9.22663 13.5036 8.25725 14.3152 7.28787 15.1042C5.28148 16.7724 3.34272 18.5308 1.49414 20.3118C1.56177 20.2667 6.97226 16.7273 10.1735 14.7435C10.2862 15.0816 10.3764 15.4198 10.4891 15.7354C9.18154 16.3892 7.62603 17.1331 6.4763 17.7418C5.05604 18.4632 3.65833 19.2297 2.26063 19.9962L10.8047 16.7724C10.9174 17.1106 11.0076 17.4262 11.1203 17.7418L2.28317 20.154C5.32657 19.7933 8.46014 19.3199 11.481 18.8013C11.6163 19.162 11.729 19.5227 11.8642 19.8834C10.3538 19.9962 8.48269 20.0638 7.15261 20.154C5.37166 20.2667 1.6294 20.3343 1.51668 20.3343C4.06412 20.695 6.65665 20.943 9.27171 21.1459C12.2024 21.3488 14.9978 21.439 17.4325 21.439C21.7835 21.439 25.0072 21.2135 25.8188 21.1459C28.4339 20.9655 31.0038 20.695 33.5738 20.3343C33.4611 20.3343 29.7188 20.2667 27.9379 20.154C26.5627 20.0638 24.7141 19.9736 23.1812 19.8834ZM13.6452 15.5325C13.3747 15.4198 13.1267 15.2394 12.9689 14.9915L11.9995 13.3007C11.9995 13.3007 14.7047 14.0672 14.7498 14.0897C15.0204 14.1799 15.2683 14.3828 15.4261 14.6308C15.4261 14.6533 16.3955 16.3441 16.3955 16.3441C16.3955 16.3441 13.6903 15.5551 13.6452 15.5325ZM22.0991 14.9915C22.0991 14.9689 22.0991 14.9689 22.0991 14.9915C21.9413 15.2394 21.6933 15.4423 21.4228 15.5325C21.3551 15.5551 18.695 16.3215 18.695 16.3215C18.695 16.3215 19.6418 14.6308 19.6644 14.6082C19.8222 14.3602 20.0701 14.1799 20.3407 14.0672C20.3632 14.0446 23.091 13.2781 23.091 13.2781L22.0991 14.9915Z" fill="#FF6600"/>
<path d="M25.7964 9.10756C26.4277 6.56012 26.9687 4.03523 27.4196 1.48779C25.1427 2.70515 22.8883 4.01269 20.679 5.38785C19.8449 5.90636 19.0108 6.44741 18.1992 6.98845C20.8368 8.76941 23.1814 10.5053 25.03 11.9706C25.2329 11.3168 25.5935 9.94168 25.7964 9.10756Z" fill="#FF6600"/>
<path d="M15.4071 14.6084C15.2493 14.3604 15.0013 14.1801 14.7308 14.0673C14.7083 14.0448 11.9805 13.2783 11.9805 13.2783L12.9498 14.9691C13.1077 15.2171 13.3556 15.42 13.6262 15.5101C13.6938 15.5327 16.3539 16.2992 16.3539 16.2992L15.4071 14.6084Z" fill="#191A51"/>
<path d="M18.6973 16.2992C18.6973 16.2992 21.3574 15.5327 21.4251 15.5101C21.6956 15.3974 21.9436 15.2171 22.1014 14.9691L23.0707 13.2783C23.0707 13.2783 20.3655 14.0448 20.3204 14.0673C20.0499 14.1575 19.8019 14.3604 19.6441 14.6084L18.6973 16.2992Z" fill="#191A51"/>
<path d="M19.6652 27.1876C19.6878 27.1876 19.7103 27.2101 19.6878 27.2101C19.0115 28.7882 18.2901 30.3662 17.5461 31.8992C17.5461 31.9217 17.501 31.9217 17.501 31.8992C16.7571 30.3662 16.0357 28.7882 15.3594 27.2101C15.3594 27.1876 15.3594 27.165 15.3819 27.1876C16.0582 27.3454 16.7796 27.4355 17.5236 27.4355C18.2675 27.4355 18.9889 27.3454 19.6652 27.1876Z" fill="#191A51"/>
</svg>
