<svg width="38" height="42" viewBox="0 0 38 42" fill="none" xmlns="http://www.w3.org/2000/svg">
<path d="M8.84198 40.0887V40.3302C8.84198 40.4143 8.79997 40.4563 8.71595 40.4563H8.34835V41.8321C8.34835 41.9161 8.30634 41.9581 8.22232 41.9581H7.93875C7.85473 41.9581 7.81272 41.9161 7.81272 41.8321V40.4563H7.43463C7.3506 40.4563 7.30859 40.4143 7.30859 40.3302V40.0887C7.30859 40.0047 7.3506 39.9626 7.43463 39.9626H8.70544C8.79997 39.9626 8.84198 40.0152 8.84198 40.0887Z" fill="white"/>
<path d="M8.94727 41.223V40.6873C8.94727 40.2252 9.27285 39.9207 9.77697 39.9207C10.2811 39.9207 10.6067 40.2252 10.6067 40.6873V41.223C10.6067 41.6851 10.2811 41.9897 9.77697 41.9897C9.27285 41.9897 8.94727 41.6851 8.94727 41.223ZM10.071 41.2125V40.6873C10.071 40.5193 9.94502 40.4143 9.77697 40.4143C9.60893 40.4143 9.4829 40.5298 9.4829 40.6873V41.2125C9.4829 41.3805 9.59843 41.4855 9.77697 41.4855C9.94502 41.5066 10.071 41.391 10.071 41.2125Z" fill="white"/>
<path d="M10.8066 41.223V40.6873C10.8066 40.2252 11.1322 39.9207 11.6363 39.9207C12.1405 39.9207 12.4661 40.2252 12.4661 40.6873V41.223C12.4661 41.6851 12.1405 41.9897 11.6363 41.9897C11.1427 41.9897 10.8066 41.6851 10.8066 41.223ZM11.9304 41.2125V40.6873C11.9304 40.5193 11.8044 40.4143 11.6363 40.4143C11.4683 40.4143 11.3423 40.5298 11.3423 40.6873V41.2125C11.3423 41.3805 11.4578 41.4855 11.6363 41.4855C11.8149 41.5066 11.9304 41.391 11.9304 41.2125Z" fill="white"/>
<path d="M13.9888 41.5801V41.8216C13.9888 41.9056 13.9468 41.9476 13.8628 41.9476H12.8545C12.7705 41.9476 12.7285 41.9056 12.7285 41.8216V40.0782C12.7285 39.9942 12.7705 39.9521 12.8545 39.9521H13.1381C13.2221 39.9521 13.2642 39.9942 13.2642 40.0782V41.454H13.8628C13.9468 41.4645 13.9888 41.5065 13.9888 41.5801Z" fill="white"/>
<path d="M15.8054 41.433C15.8054 41.7376 15.5953 41.9581 15.2697 41.9581H14.335C14.251 41.9581 14.209 41.9161 14.209 41.8321V40.0887C14.209 40.0047 14.251 39.9626 14.335 39.9626H15.2067C15.5323 39.9626 15.7424 40.1622 15.7424 40.4878C15.7424 40.7293 15.6058 40.9079 15.4168 40.9394V40.9709C15.6373 41.0024 15.8054 41.181 15.8054 41.433ZM14.7446 40.4353V40.7503H15.0492C15.1437 40.7503 15.2067 40.6873 15.2067 40.5928C15.2067 40.4983 15.1437 40.4353 15.0492 40.4353H14.7446ZM15.2592 41.3175C15.2592 41.2125 15.1962 41.1494 15.1017 41.1494H14.7341V41.475H15.1017C15.2067 41.496 15.2592 41.4225 15.2592 41.3175Z" fill="white"/>
<path d="M15.9414 41.223V40.6873C15.9414 40.2252 16.267 39.9207 16.7711 39.9207C17.2752 39.9207 17.6008 40.2252 17.6008 40.6873V41.223C17.6008 41.6851 17.2752 41.9897 16.7711 41.9897C16.267 41.9897 15.9414 41.6851 15.9414 41.223ZM17.0652 41.2125V40.6873C17.0652 40.5193 16.9392 40.4143 16.7711 40.4143C16.6031 40.4143 16.477 40.5298 16.477 40.6873V41.2125C16.477 41.3805 16.5926 41.4855 16.7711 41.4855C16.9497 41.5066 17.0652 41.391 17.0652 41.2125Z" fill="white"/>
<path d="M17.7165 41.8006L18.1786 40.9814L17.685 40.1202C17.6325 40.0257 17.6745 39.9626 17.769 39.9626H18.1471C18.2206 39.9626 18.2626 39.9942 18.2941 40.0572L18.5147 40.4878H18.5462L18.7668 40.0572C18.7983 39.9942 18.8508 39.9626 18.9138 39.9626H19.2394C19.3339 39.9626 19.3759 40.0257 19.3234 40.1202L18.8613 40.9394L19.3549 41.8006C19.4074 41.8951 19.3654 41.9581 19.2709 41.9581H18.8928C18.8193 41.9581 18.7773 41.9266 18.7458 41.8636L18.5252 41.433H18.4937L18.2836 41.8636C18.2521 41.9266 18.1996 41.9581 18.1366 41.9581H17.8005C17.6955 41.9476 17.6535 41.8951 17.7165 41.8006Z" fill="white"/>
<path d="M20.0912 41.4645C20.0807 41.3805 20.1332 41.328 20.2172 41.328H20.5428C20.6163 41.328 20.6373 41.3595 20.6688 41.4225C20.7003 41.5276 20.7843 41.5696 20.8894 41.5696C21.0154 41.5696 21.1099 41.5065 21.1099 41.412C21.1099 41.118 20.1122 41.2545 20.1122 40.5403C20.1122 40.1412 20.4273 39.9207 20.8789 39.9207C21.299 39.9207 21.572 40.0992 21.6351 40.4143C21.6456 40.4983 21.5931 40.5508 21.509 40.5508H21.194C21.1204 40.5508 21.0994 40.5193 21.0784 40.4773C21.0469 40.3933 20.9734 40.3513 20.8789 40.3513C20.7528 40.3513 20.6793 40.4143 20.6793 40.4983C20.6793 40.7924 21.6771 40.6348 21.6771 41.3595C21.6771 41.7586 21.3725 42.0002 20.8999 42.0002C20.4378 41.9897 20.1542 41.8006 20.0912 41.4645Z" fill="white"/>
<path d="M21.8555 41.2545V40.0782C21.8555 39.9942 21.8975 39.9521 21.9815 39.9521H22.2651C22.3491 39.9521 22.3911 39.9942 22.3911 40.0782V41.244C22.3911 41.4015 22.4961 41.4855 22.6537 41.4855C22.8112 41.4855 22.9162 41.3805 22.9162 41.244V40.0782C22.9162 39.9942 22.9582 39.9521 23.0423 39.9521H23.3258C23.4099 39.9521 23.4519 39.9942 23.4519 40.0782V41.2545C23.4519 41.6956 23.1368 41.9897 22.6537 41.9897C22.1705 41.9897 21.8555 41.6956 21.8555 41.2545Z" fill="white"/>
<path d="M23.7559 41.8321V40.0887C23.7559 40.0047 23.7979 39.9626 23.8819 39.9626H24.1655C24.2495 39.9626 24.2915 40.0047 24.2915 40.0887V41.8321C24.2915 41.9161 24.2495 41.9581 24.1655 41.9581H23.8819C23.7979 41.9476 23.7559 41.9161 23.7559 41.8321Z" fill="white"/>
<path d="M26.0248 40.0887V40.3302C26.0248 40.4143 25.9828 40.4563 25.8988 40.4563H25.5312V41.8321C25.5312 41.9161 25.4892 41.9581 25.4052 41.9581H25.1216C25.0376 41.9581 24.9956 41.9161 24.9956 41.8321V40.4563H24.628C24.544 40.4563 24.502 40.4143 24.502 40.3302V40.0887C24.502 40.0047 24.544 39.9626 24.628 39.9626H25.8988C25.9933 39.9626 26.0248 40.0152 26.0248 40.0887Z" fill="white"/>
<path d="M26.7798 40.4563V40.7188H27.3259C27.4099 40.7188 27.4519 40.7608 27.4519 40.8449V41.0759C27.4519 41.1599 27.4099 41.202 27.3259 41.202H26.7798V41.475H27.4414C27.5255 41.475 27.5675 41.517 27.5675 41.6011V41.8426C27.5675 41.9266 27.5255 41.9686 27.4414 41.9686H26.3702C26.2862 41.9686 26.2441 41.9266 26.2441 41.8426V40.0887C26.2441 40.0047 26.2862 39.9626 26.3702 39.9626H27.4414C27.5255 39.9626 27.5675 40.0047 27.5675 40.0887V40.3302C27.5675 40.4143 27.5255 40.4563 27.4414 40.4563H26.7798Z" fill="white"/>
<path d="M36.4966 31.3504L36.6331 31.529H36.8432L36.6752 31.3294C36.7172 31.3189 36.7487 31.2874 36.7697 31.2559C36.7907 31.2244 36.8012 31.1824 36.8012 31.1509C36.8012 31.1194 36.8012 31.0879 36.7907 31.0669C36.7802 31.0459 36.7697 31.0144 36.7487 31.0039C36.7277 30.9828 36.7067 30.9723 36.6857 30.9618C36.6646 30.9513 36.6331 30.9513 36.6016 30.9513H36.3391V31.5395H36.5071L36.4966 31.3504ZM36.5491 31.0984C36.5806 31.0984 36.6016 31.0984 36.6121 31.1194C36.6226 31.1299 36.6331 31.1404 36.6331 31.1614C36.6331 31.1824 36.6226 31.1929 36.6121 31.2034C36.6016 31.2139 36.5806 31.2244 36.5491 31.2244H36.4966V31.0984H36.5491ZM37.2213 31.2349C37.2213 30.8673 36.9167 30.5627 36.5491 30.5627C36.1815 30.5627 35.877 30.8673 35.877 31.2349C35.877 31.6025 36.1815 31.9071 36.5491 31.9071C36.9167 31.9071 37.2213 31.6025 37.2213 31.2349ZM37.0532 31.2349C37.0532 31.5185 36.8222 31.7495 36.5386 31.7495C36.255 31.7495 36.024 31.5185 36.024 31.2349C36.024 30.9513 36.255 30.7203 36.5386 30.7203C36.8222 30.7203 37.0532 30.9513 37.0532 31.2349Z" fill="white"/>
<path d="M0 33.6084V38.9437C0 39.1433 0.157539 39.3113 0.367592 39.3113H1.6069C1.80645 39.3113 1.97449 39.1538 1.97449 38.9437V34.7847C1.97449 34.6166 2.11103 34.4801 2.27907 34.4801C2.44711 34.4801 2.58365 34.6166 2.58365 34.7847V36.3811C2.58365 36.5806 2.74119 36.7487 2.94074 36.7487H4.18005C4.3796 36.7487 4.53713 36.5911 4.53713 36.3811V33.6084C4.53713 33.0097 4.05401 32.5266 3.45536 32.5266H1.09227C0.493624 32.5266 0 33.0097 0 33.6084Z" fill="white"/>
<path d="M15.375 33.6084V38.9437C15.375 39.1433 15.5325 39.3113 15.7321 39.3113H16.9714C17.171 39.3113 17.3285 39.1538 17.3285 38.9437V34.7847C17.3285 34.6166 17.465 34.4801 17.6331 34.4801C17.8011 34.4801 17.9376 34.6166 17.9376 34.7847V38.9437C17.9376 39.1433 18.0952 39.3113 18.2947 39.3113H19.534C19.7336 39.3113 19.8911 39.1538 19.8911 38.9437V33.6084C19.8911 33.0097 19.408 32.5266 18.8094 32.5266H16.4568C15.8686 32.5266 15.375 33.0097 15.375 33.6084Z" fill="white"/>
<path d="M25.627 33.6084V38.9437C25.627 39.1433 25.7845 39.3113 25.9945 39.3113H27.2339C27.4334 39.3113 27.6014 39.1538 27.6014 38.9437V34.7847C27.6014 34.6166 27.738 34.4801 27.906 34.4801C28.0741 34.4801 28.2106 34.6166 28.2106 34.7847V36.3811C28.2106 36.5806 28.3681 36.7487 28.5782 36.7487H29.8175C30.017 36.7487 30.1851 36.5911 30.1851 36.3811V33.6084C30.1851 33.0097 29.702 32.5266 29.1033 32.5266H26.7507C26.1206 32.5266 25.627 33.0097 25.627 33.6084Z" fill="white"/>
<path d="M35.2778 36.3917V30.9408C35.2778 30.7413 35.1098 30.5732 34.9103 30.5732H33.6815C33.4819 30.5732 33.3244 30.7308 33.3244 30.9303V31.802C33.3244 32.2011 32.9988 32.5267 32.5997 32.5267H31.8435C31.2448 32.5267 30.7617 33.0099 30.7617 33.6085V38.2192C30.7617 38.8178 31.2448 39.3009 31.8435 39.3009H34.9208C35.1203 39.3009 35.2884 39.1434 35.2884 38.9333V37.694C35.2884 37.4945 35.1308 37.3264 34.9208 37.3264H33.4399C33.0408 37.3264 32.7152 37.0008 32.7152 36.6017V34.7638C32.7152 34.5957 32.8517 34.4592 33.0198 34.4592C33.1878 34.4592 33.3244 34.5957 33.3244 34.7638V36.3812C33.3244 36.5807 33.4819 36.7488 33.692 36.7488H34.9208C35.1203 36.7488 35.2778 36.5912 35.2778 36.3917Z" fill="white"/>
<path d="M20.5117 32.8942V34.1335C20.5117 34.3331 20.6693 34.4906 20.8688 34.4906H22.3497C22.7488 34.4906 23.0744 34.8162 23.0744 35.2153V37.0532C23.0744 37.2213 22.9378 37.3578 22.7698 37.3578C22.6017 37.3578 22.4652 37.2213 22.4652 37.0532V35.4568C22.4652 35.2573 22.3077 35.0893 22.1081 35.0893H20.8688C20.6693 35.0893 20.5117 35.2468 20.5117 35.4568V38.2295C20.5117 38.8282 20.9948 39.3113 21.5935 39.3113H23.9461C24.5447 39.3113 25.0278 38.8282 25.0278 38.2295V33.6189C25.0278 33.0202 24.5447 32.5371 23.9461 32.5371H20.8688C20.6693 32.5266 20.5117 32.6842 20.5117 32.8942Z" fill="white"/>
<path d="M9.65285 36.3916V33.6189C9.65285 33.0202 9.16973 32.5371 8.57108 32.5371H6.21849C5.61984 32.5371 5.13672 33.0202 5.13672 33.6189V38.2295C5.13672 38.8282 5.61984 39.3113 6.21849 39.3113H9.29576C9.49531 39.3113 9.65285 39.1538 9.65285 38.9437V37.7044C9.65285 37.5049 9.49531 37.3473 9.29576 37.3473H7.81489C7.41579 37.3473 7.09021 37.0217 7.09021 36.6226V34.7847C7.09021 34.6166 7.22674 34.4801 7.39478 34.4801C7.56283 34.4801 7.69936 34.6166 7.69936 34.7847V36.3811C7.69936 36.5806 7.8569 36.7487 8.05645 36.7487H9.29576C9.49531 36.7487 9.65285 36.5911 9.65285 36.3916Z" fill="white"/>
<path d="M12.8126 32.8942V34.4906C12.8126 34.6586 12.6761 34.7952 12.5081 34.7952C12.34 34.7952 12.2035 34.6586 12.2035 34.4906V32.8942C12.2035 32.6947 12.0459 32.5266 11.8464 32.5266H10.6071C10.4075 32.5266 10.25 32.6842 10.25 32.8837V35.4253C10.25 36.2655 10.7331 36.7487 11.3318 36.7487H12.5081C12.6761 36.7487 12.8126 36.8852 12.8126 37.0532C12.8126 37.2213 12.6761 37.3578 12.5081 37.3578H10.6071C10.4075 37.3578 10.25 37.5154 10.25 37.7149V38.9542C10.25 39.1538 10.4075 39.3218 10.6071 39.3218H13.6844C14.283 39.3218 14.7661 38.8387 14.7661 38.24V32.9047C14.7661 32.7052 14.6086 32.5476 14.409 32.5476H13.1802C12.9807 32.5266 12.8126 32.6842 12.8126 32.8942Z" fill="white"/>
<path d="M17.6438 30.3631C17.9169 30.3631 18.1584 30.2055 18.2739 29.964C19.7758 26.8552 21.1412 23.6729 22.3385 20.4381C25.7938 20.2911 29.2492 19.9865 32.6625 19.5139C32.9251 19.4719 33.1457 19.2933 33.2297 19.0412C33.3137 18.7892 33.2402 18.5056 33.0511 18.3166C30.562 15.922 27.9469 13.6534 25.2372 11.5004C26.1614 8.17103 26.9386 4.79969 27.5478 1.40734C27.6003 1.14477 27.4847 0.882208 27.2747 0.724669C27.1487 0.640648 27.0121 0.588135 26.8651 0.588135C26.7496 0.588135 26.634 0.619643 26.5395 0.672156C26.5395 0.672156 21.7293 3.30831 17.6438 5.98648C13.5583 3.30831 8.73756 0.672156 8.73756 0.672156C8.63253 0.619643 8.517 0.588135 8.41198 0.588135C8.26494 0.588135 8.1179 0.630145 8.00237 0.724669C7.78182 0.882208 7.67679 1.14477 7.72931 1.40734C8.33846 4.81019 9.11565 8.18153 10.0399 11.5004C7.33021 13.6429 4.72556 15.922 2.23643 18.3166C2.04739 18.5056 1.97387 18.7787 2.05789 19.0412C2.14191 19.2933 2.36246 19.4824 2.62503 19.5139C6.04889 19.9865 9.50425 20.2911 12.9491 20.4381C14.1569 23.6729 15.5118 26.8552 17.0136 29.964C17.1292 30.2055 17.3707 30.3631 17.6438 30.3631Z" fill="white"/>
<path d="M15.6608 13.4959C15.5138 13.2648 15.2827 13.0863 15.0307 12.9918C14.9991 12.9813 12.4785 12.2566 12.4785 12.2566L13.3922 13.8425C13.5393 14.084 13.7703 14.2626 14.0224 14.3571C14.0854 14.3781 16.564 15.0818 16.564 15.0818C16.564 15.0818 15.6713 13.5064 15.6608 13.4959Z" fill="#191A51"/>
<path d="M18.7266 15.0818C18.7266 15.0818 21.2052 14.3781 21.2682 14.3571C21.5308 14.2626 21.7513 14.084 21.8984 13.8425L22.8121 12.2566C22.8121 12.2566 20.281 12.9813 20.2599 12.9918C19.9974 13.0863 19.7768 13.2648 19.6298 13.4959C19.6088 13.5064 18.7266 15.0818 18.7266 15.0818Z" fill="#191A51"/>
<path d="M19.6301 25.2168C19.6511 25.2168 19.6616 25.2273 19.6511 25.2483C19.0104 26.7292 18.3488 28.189 17.6556 29.6174C17.6451 29.6384 17.6241 29.6384 17.6136 29.6174C16.9204 28.1785 16.2588 26.7187 15.6181 25.2483C15.6076 25.2273 15.6286 25.2168 15.6391 25.2168C16.2798 25.3638 16.9414 25.4479 17.6241 25.4479C18.3278 25.4479 18.9894 25.3638 19.6301 25.2168Z" fill="#191A51"/>
<path d="M22.916 18.411C23.0316 18.0855 23.1471 17.7494 23.2626 17.4028C26.0878 17.8754 29.0076 18.327 31.8433 18.6631L23.5987 16.4155C23.7037 16.111 23.7983 15.8169 23.8928 15.5123L31.8643 18.5266C30.5619 17.8124 29.2491 17.1192 27.9363 16.4365C26.8755 15.8799 25.4262 15.1762 24.2079 14.5671C24.3024 14.2625 24.3969 13.9474 24.5019 13.6323C27.4847 15.4703 32.5259 18.7891 32.5785 18.8206C30.2469 16.5836 27.8103 14.4515 25.2896 12.4245C22.8845 10.4921 20.3954 8.6646 17.8328 6.94217C14.829 4.92566 11.7202 3.05619 8.53794 1.34427C8.50643 1.32326 8.46442 1.30226 8.42241 1.28125C9.05257 4.81013 9.87178 8.30751 10.8485 11.7629C9.92429 12.4876 9.02106 13.2227 8.12834 13.9684C6.24837 15.5438 4.45242 17.1612 2.70898 18.8206C2.7615 18.7891 7.80276 15.4703 10.7855 13.6323C10.88 13.9474 10.9746 14.252 11.0796 14.5671C9.85077 15.1657 8.41191 15.8799 7.35114 16.4365C6.02781 17.1192 4.72549 17.8124 3.42316 18.5266L11.3842 15.5123C11.4787 15.8169 11.5837 16.1215 11.6782 16.4155L3.43366 18.6631C6.26937 18.3165 9.1786 17.8754 12.0143 17.4028C12.1298 17.7389 12.2454 18.0749 12.3609 18.411C10.9535 18.5056 9.22061 18.5896 7.9708 18.6631C6.31138 18.7681 2.82451 18.8311 2.70898 18.8311C5.09308 19.1567 7.49818 19.3983 9.93479 19.5768C12.6655 19.7764 15.2701 19.8499 17.5387 19.8499C21.6032 19.8499 24.5965 19.6293 25.3421 19.5768C27.7682 19.4088 30.1839 19.1567 32.5679 18.8311C32.4629 18.8311 28.9761 18.7681 27.3166 18.6631C26.0668 18.5791 24.3339 18.5056 22.916 18.411ZM14.0203 14.357C13.7577 14.2625 13.5372 14.084 13.3902 13.8424L12.4764 12.2565C12.4764 12.2565 15.0076 12.9812 15.0286 12.9917C15.2911 13.0862 15.5117 13.2647 15.6587 13.4958C15.6692 13.5063 16.5619 15.0817 16.5619 15.0817C16.5619 15.0817 14.0728 14.378 14.0203 14.357ZM21.8973 13.8424C21.7502 14.0734 21.5192 14.2625 21.2671 14.357C21.2041 14.378 18.7255 15.0817 18.7255 15.0817C18.7255 15.0817 19.6182 13.5063 19.6287 13.4958C19.7758 13.2647 20.0068 13.0862 20.2589 12.9917C20.2904 12.9812 22.811 12.2565 22.811 12.2565L21.8973 13.8424Z" fill="#FF6600"/>
<path d="M25.3437 8.38103C25.9213 6.01793 26.4359 3.65484 26.8665 1.28125C24.745 2.41553 22.655 3.62334 20.586 4.91516C19.8088 5.39828 19.0421 5.8919 18.2754 6.39603C20.733 8.05544 22.907 9.67285 24.6505 11.0277C24.8185 10.4185 25.1546 9.14772 25.3437 8.38103Z" fill="#FF6600"/>
</svg>
